<?xml version="1.0" encoding="UTF-8"?>
<!DOCTYPE svg PUBLIC "-//W3C//DTD SVG 1.1//EN" "http://www.w3.org/Graphics/SVG/1.1/DTD/svg11.dtd">
<!-- Creator: CorelDRAW X8 -->
<svg xmlns="http://www.w3.org/2000/svg" xml:space="preserve" width="36.4907mm" height="36.4871mm" version="1.1" style="shape-rendering:geometricPrecision; text-rendering:geometricPrecision; image-rendering:optimizeQuality; fill-rule:evenodd; clip-rule:evenodd"
viewBox="0 0 178763 178746"
 xmlns:xlink="http://www.w3.org/1999/xlink">
 <defs>
  <style type="text/css">
   <![CDATA[
    .fil0 {fill:#021A49}
   ]]>
  </style>
 </defs>
 <g id="Capa_x0020_1">
  <metadata id="CorelCorpID_0Corel-Layer"/>
  <g id="_1987552753888">
   <path class="fil0" d="M0 85817c91,-1047 199,-2094 270,-3143 544,-8047 2230,-15853 4937,-23442 3339,-9357 8146,-17903 14334,-25665 3284,-4119 6927,-7906 10893,-11383 6012,-5271 12601,-9671 19785,-13175 6901,-3366 14124,-5776 21657,-7295 7177,-1448 14426,-1947 21718,-1616 11579,526 22654,3219 33191,8088 10677,4933 20028,11709 28022,20317 10378,11173 17483,24174 21204,38967 893,3552 1424,7201 2001,10824 759,4752 854,9557 671,14350 -476,12510 -3402,24428 -8874,35706 -3509,7233 -7907,13880 -13209,19914 -8134,9257 -17766,16551 -28897,21861 -7186,3429 -14705,5826 -22534,7233 -4239,762 -8520,1167 -12831,1326 -3905,145 -7799,33 -11674,-355 -14378,-1438 -27671,-6033 -39823,-13881 -5796,-3743 -11097,-8093 -15869,-13073 -9115,-9514 -15865,-20479 -20157,-32953 -1735,-5045 -3031,-10199 -3793,-15472 -434,-3002 -598,-6043 -888,-9065 -28,-290 -89,-576 -134,-863l0 -7205 0 0zm11771 3581c-23,42650 34293,76995 76412,77594 43996,626 79458,-35187 78773,-78937 -650,-41461 -34810,-77086 -79333,-76198 -41607,830 -75825,34901 -75852,77541z"/>
   <path class="fil0" d="M51986 140428l0 -101989 762 0c6995,0 13990,4 20985,-1 6764,-3 13529,-65 20292,-3 3386,30 6778,183 10152,458 3159,257 6312,751 9262,1978 5205,2164 9019,5887 11671,10821 2311,4302 3044,8947 2720,13760 -348,5155 -2008,9843 -5374,13841 -2416,2870 -5385,5006 -8806,6526 -284,126 -563,265 -842,575 284,86 566,188 854,256 4335,1019 8235,2877 11484,5976 3349,3195 5422,7125 6404,11604 1434,6544 922,12956 -1818,19097 -3521,7893 -9562,12978 -17772,15532 -2577,802 -5225,1346 -7922,1381 -7731,101 -15462,125 -23194,151 -6718,23 -13436,4 -20154,9 -2632,2 -5263,18 -7894,27 -205,2 -411,1 -810,1l0 0zm13539 -46684l0 703c8,11265 22,22530 10,33795 -1,671 236,790 838,786 5607,-46 11214,-76 16821,-90 5379,-13 10758,-11 16136,0 2151,4 4277,-183 6359,-731 4051,-1066 7470,-3111 9869,-6615 3086,-4507 3733,-9539 2823,-14793 -888,-5128 -3895,-8684 -8614,-10796 -3847,-1721 -7931,-2307 -12104,-2313 -10457,-13 -20913,12 -31371,22 -225,0 -451,19 -766,32l-1 0zm-2 -11524c233,11 390,25 548,25 8173,-8 16346,3 24519,-38 2418,-12 4839,-121 7254,-272 2568,-158 5105,-723 7500,-1659 4379,-1713 7346,-4725 8459,-9379 723,-3022 714,-6080 198,-9123 -825,-4860 -3429,-8349 -8097,-10170 -3349,-1307 -6870,-1735 -10414,-1761 -9812,-70 -19625,-16 -29437,-28 -536,-1 -662,180 -649,681 51,1983 84,3967 88,5951 17,8335 21,16670 30,25005 1,228 0,457 0,768l1 0z"/>
  </g>
 </g>
</svg>
