<?xml version="1.0" encoding="UTF-8"?>
<!DOCTYPE svg PUBLIC "-//W3C//DTD SVG 1.1//EN" "http://www.w3.org/Graphics/SVG/1.1/DTD/svg11.dtd">
<!-- Creator: CorelDRAW X8 -->
<svg xmlns="http://www.w3.org/2000/svg" xml:space="preserve" width="33.7573mm" height="36.4907mm" version="1.1" style="shape-rendering:geometricPrecision; text-rendering:geometricPrecision; image-rendering:optimizeQuality; fill-rule:evenodd; clip-rule:evenodd"
viewBox="0 0 164034 177316"
 xmlns:xlink="http://www.w3.org/1999/xlink">
 <defs>
  <style type="text/css">
   <![CDATA[
    .fil0 {fill:#0C53E1}
   ]]>
  </style>
 </defs>
 <g id="Capa_x0020_1">
  <metadata id="CorelCorpID_0Corel-Layer"/>
  <g id="_1987687810928">
   <circle class="fil0" cx="133626" cy="116043" r="7648"/>
   <circle class="fil0" cx="93811" cy="106863" r="5283"/>
   <circle class="fil0" cx="133996" cy="5283" r="5283"/>
   <circle class="fil0" cx="116341" cy="103492" r="3371"/>
   <circle class="fil0" cx="113460" cy="12468" r="3371"/>
   <circle class="fil0" cx="27643" cy="97476" r="7648"/>
   <circle class="fil0" cx="30007" cy="71876" r="5283"/>
   <circle class="fil0" cx="24724" cy="52883" r="3371"/>
   <path class="fil0" d="M44548 19486l-31769 0c-7046,0 -12779,5733 -12779,12779 0,5336 3287,9918 7942,11829l0 71101c0,2671 2166,4837 4837,4837 10356,0 17227,1 17227,1 1,0 1,0 1,0 2671,0 4837,-2165 4837,-4835 1,-2672 -2165,-4838 -4835,-4838 0,0 -4788,-1 -12393,-1l0 -70151c0,-2672 -2166,-4837 -4837,-4837 -1713,0 -3106,-1393 -3106,-3106 0,-1712 1393,-3105 3106,-3105l31769 0c1713,0 3106,1393 3106,3105 0,1713 -1393,3106 -3106,3106l-14541 0c-2671,0 -4836,2165 -4836,4837 0,2671 2165,4836 4836,4836l9704 0 0 111551c0,6092 -4955,11048 -11047,11048 -6092,0 -11048,-4956 -11048,-11048l0 -26125c0,-2672 -2166,-4837 -4837,-4837 -2671,0 -4837,2165 -4837,4837l0 26125c0,11426 9296,20721 20722,20721 11425,0 20721,-9295 20721,-20721l0 -112504c4654,-1911 7942,-6490 7942,-11826 0,-7046 -5732,-12779 -12779,-12779z"/>
   <path class="fil0" d="M85818 120015c-2,0 -2,0 -3,0 -2670,0 -4835,2165 -4837,4835 -1,2672 2164,4838 4835,4839 463,0 942,12 1423,35 80,4 159,6 237,6 2564,0 4703,-2015 4827,-4604 129,-2668 -1930,-4935 -4598,-5064 -634,-30 -1269,-46 -1884,-47z"/>
   <path class="fil0" d="M161656 128335c-1883,-1112 -4279,-822 -5843,708 -4425,4333 -9821,5998 -16980,5241 -7053,-746 -14760,-3630 -22919,-6684 -4115,-1540 -8369,-3132 -12571,-4439 -2550,-794 -5262,630 -6055,3181 -794,2550 630,5262 3181,6055 3941,1226 8066,2770 12055,4263 8366,3131 17017,6368 25292,7243 4976,526 9466,164 13523,-1106 -6440,14718 -21198,24846 -37930,24846 -20817,0 -38462,-15549 -41044,-36169 -214,-1710 -323,-3459 -323,-5197 0,-17274 10889,-32883 27095,-38839 1903,-700 3168,-2512 3168,-4540l0 -41993c33,-228 56,-460 56,-697 0,-2672 -2166,-4837 -4837,-4837 -1712,0 -3105,-1393 -3105,-3106 0,-1712 1393,-3105 3105,-3105l31769 0c1713,0 3106,1393 3106,3105 0,1713 -1393,3106 -3106,3106l-15885 0c-2671,0 -4836,2165 -4836,4837 0,2671 2165,4836 4836,4836l11016 0 88 37864c5,2024 1268,3831 3168,4529 13226,4862 22974,15954 26077,29672 508,2246 2503,3771 4713,3771 353,0 712,-39 1071,-121 2605,-589 4240,-3178 3651,-5784 -1875,-8289 -5852,-16054 -11502,-22456 -4851,-5498 -10855,-9903 -17512,-12876l-83 -35539c4674,-1902 7977,-6491 7977,-11839 0,-7046 -5732,-12779 -12779,-12779l-31769 0c-7046,0 -12779,5733 -12779,12779 0,5314 3261,9879 7886,11803l0 35575c-8348,3715 -15513,9581 -20861,17110 -6150,8660 -9401,18869 -9401,29524 0,2138 134,4291 398,6399 3187,25449 24958,44640 50642,44640 12431,0 24410,-4521 33728,-12732 9215,-8118 15195,-19255 16843,-31366 291,-1928 -611,-3871 -2324,-4883z"/>
  </g>
 </g>
</svg>
