<?xml version="1.0" encoding="UTF-8"?>
<!DOCTYPE svg PUBLIC "-//W3C//DTD SVG 1.1//EN" "http://www.w3.org/Graphics/SVG/1.1/DTD/svg11.dtd">
<!-- Creator: CorelDRAW X8 -->
<svg xmlns="http://www.w3.org/2000/svg" xml:space="preserve" width="24.3518mm" height="36.4906mm" version="1.1" style="shape-rendering:geometricPrecision; text-rendering:geometricPrecision; image-rendering:optimizeQuality; fill-rule:evenodd; clip-rule:evenodd"
viewBox="0 0 42738 64043"
 xmlns:xlink="http://www.w3.org/1999/xlink">
 <defs>
  <style type="text/css">
   <![CDATA[
    .fil0 {fill:#0C53E1}
   ]]>
  </style>
 </defs>
 <g id="Capa_x0020_1">
  <metadata id="CorelCorpID_0Corel-Layer"/>
  <path class="fil0" d="M13009 50033l16511 0 0 6505 -16511 0 0 -6505zm9415 14010l-2490 0c-838,-202 -1693,-633 -2540,-1384 -2261,-2003 -315,-1284 -3846,-1658 -3513,-371 -5042,-2087 -5042,-5964 0,-4007 -663,-8028 3002,-9006 -2791,-11980 -11508,-10032 -11508,-26018 0,-10125 9888,-20013 20013,-20013l3002 0c9386,0 18469,8815 19565,18993 1552,14395 -8771,16718 -11059,26537 746,1019 2502,1886 2502,3503 0,12768 704,10816 -5945,12067 -761,144 -2968,2354 -5654,2943zm-8915 -35524c2217,0 2621,-1742 4503,-3002 690,1031 1501,1299 1501,2502l0 17511c-6573,0 -2041,-574 -7197,-8313 -3122,-4687 -14450,-13746 -3831,-27231 8492,-10784 30041,-6026 30041,11528 0,10467 -8683,11891 -11508,24016l-3502 0 0 -17511c0,-1203 810,-1471 1501,-2502 2,1 6241,6298 6392,959 34,-1227 -599,-1500 -1481,-2353 -5521,-5336 -4160,-3956 -8414,-1108 -2836,-1899 -3145,-4156 -6646,-645 -531,533 -2531,2413 -2784,2790 -944,1406 -340,3359 1425,3359z"/>
 </g>
</svg>
