<?xml version="1.0" encoding="UTF-8"?>
<!DOCTYPE svg PUBLIC "-//W3C//DTD SVG 1.1//EN" "http://www.w3.org/Graphics/SVG/1.1/DTD/svg11.dtd">
<!-- Creator: CorelDRAW X8 -->
<svg xmlns="http://www.w3.org/2000/svg" xml:space="preserve" width="36.4907mm" height="37.3737mm" version="1.1" style="shape-rendering:geometricPrecision; text-rendering:geometricPrecision; image-rendering:optimizeQuality; fill-rule:evenodd; clip-rule:evenodd"
viewBox="0 0 83597 85620"
 xmlns:xlink="http://www.w3.org/1999/xlink">
 <defs>
  <style type="text/css">
   <![CDATA[
    .fil0 {fill:#021A49}
   ]]>
  </style>
 </defs>
 <g id="Capa_x0020_1">
  <metadata id="CorelCorpID_0Corel-Layer"/>
  <g id="_1987687797264">
   <path class="fil0" d="M41798 9371c7576,16 14925,2613 20836,7349l-7284 0c-2309,0 -4180,1871 -4180,4179 0,2308 1871,4180 4180,4180l16719 0c2308,0 4180,-1872 4180,-4180l0 -16719c0,-2308 -1872,-4180 -4180,-4180 -2308,0 -4180,1872 -4180,4180l0 6052c-7415,-5964 -16646,-9219 -26162,-9219 -23041,0 -41727,18685 -41727,41727 0,20 0,51 0,71 0,2307 1872,4179 4180,4179 2308,0 4180,-1872 4180,-4180 16,-18456 14983,-33422 33439,-33439l-1 0z"/>
   <path class="fil0" d="M79417 38630c-2308,0 -4180,1872 -4180,4180 0,14 0,43 0,59 0,18432 -14948,33380 -33380,33380 -7596,0 -14972,-2596 -20894,-7347l7280 -2c2308,0 4180,-1871 4180,-4179 0,-2308 -1872,-4180 -4180,-4180l-16719 0c-2308,0 -4180,1872 -4180,4180l0 16719c0,2308 1872,4180 4180,4180 2308,0 4180,-1872 4180,-4180l0 -6052c7407,5963 16649,9218 26161,9218 23044,0 41732,-18688 41732,-41731 0,-21 0,-46 0,-66 0,-2307 -1872,-4179 -4180,-4179z"/>
  </g>
 </g>
</svg>
